<?xml version="1.0" encoding="UTF-8"?>
<svg id="Layer_2" data-name="Layer 2" xmlns="http://www.w3.org/2000/svg" viewBox="0 0 279.49 310.44">
  <defs>
    <style>
      .cls-1 {
        fill: #000835;
      }

      .cls-2 {
        fill: #ff7f00;
      }
    </style>
  </defs>
  <g id="Logo">
    <g>
      <path class="cls-2" d="M279.49,145.46l-22.38-23.29h-109.87c-10.57,0-19.14,8.57-19.14,19.14v157.01l11.65,12.13,11.65-12.13V149.43c0-2.19,1.78-3.97,3.97-3.97h124.13Z"/>
      <path class="cls-2" d="M22.38,122.17L0,145.46H89.87c2.19,0,3.97,1.78,3.97,3.97v113.23l23.29,24.24V141.31c0-10.57-8.57-19.14-19.14-19.14H22.38Z"/>
      <path class="cls-1" d="M162.18,287.09l23.31-24.27v-100.21c0-3.52-2.85-6.37-6.37-6.37h-10.57c-3.52,0-6.37,2.85-6.37,6.37v124.47Z"/>
      <path class="cls-1" d="M59.76,227.19l23.29,24.24v-88.82c0-3.52-2.85-6.37-6.37-6.37h-10.56c-3.52,0-6.37,2.85-6.37,6.37v64.58Z"/>
      <path class="cls-1" d="M196.26,251.62l23.31-24.27v-64.74c0-3.52-2.85-6.37-6.37-6.37h-10.57c-3.52,0-6.37,2.85-6.37,6.37v89Z"/>
      <path class="cls-1" d="M83.06,59.01l-23.29,24.24v21.76c0,3.52,2.85,6.37,6.37,6.37h10.56c3.52,0,6.37-2.85,6.37-6.37V59.01Z"/>
      <path class="cls-1" d="M219.57,83.09l-23.31-24.27v46.19c0,3.52,2.85,6.37,6.37,6.37h10.57c3.52,0,6.37-2.85,6.37-6.37v-21.92Z"/>
      <path class="cls-1" d="M185.48,47.61l-23.31-24.25V105.02c0,3.52,2.85,6.37,6.37,6.37h10.57c3.52,0,6.37-2.85,6.37-6.37V47.61Z"/>
      <path class="cls-1" d="M151.39,12.13L139.74,0l-11.65,12.13V105.02c0,3.52,2.85,6.37,6.37,6.37h10.56c3.52,0,6.37-2.85,6.37-6.37V12.13Z"/>
      <path class="cls-1" d="M100.21,111.38h10.56c3.52,0,6.37-2.85,6.37-6.37V23.53l-23.29,24.25v57.23c0,3.52,2.85,6.37,6.37,6.37Z"/>
    </g>
  </g>
</svg>