<?xml version="1.0" encoding="UTF-8"?>
<svg id="Layer_2" data-name="Layer 2" xmlns="http://www.w3.org/2000/svg" viewBox="0 0 464.89 419.19">
  <defs>
    <style>
      .cls-1 {
        fill: #000835;
      }

      .cls-2 {
        fill: #ff7f00;
      }
    </style>
  </defs>
  <g id="Logo">
    <g>
      <path class="cls-1" d="M0,400.34c1.71-.24,3.73-.42,5.92-.42,3.97,0,6.82,.94,8.67,2.67,1.75,1.61,2.7,3.69,2.7,6.42s-.93,5.21-2.85,7.09c-1.96,1.87-5.23,2.93-9.36,2.93-2.03,0-3.64-.07-5.08-.22v-18.48Zm2.54,16.55c.72,.11,1.81,.13,2.98,.13,6.14,.02,9.11-3.27,9.11-7.91,.04-4.33-2.82-7.2-8.63-7.2-1.56,0-2.69,.14-3.45,.29v14.68Z"/>
      <path class="cls-1" d="M41.51,409.26c0,6.25-4.43,9.93-9.8,9.93s-9.51-4.03-9.51-9.49c0-5.85,4.16-9.94,9.75-9.94s9.56,4.07,9.56,9.51Zm-16.64,.35c0,4.07,2.66,7.57,6.96,7.57s7-3.35,7-7.81c0-3.81-2.39-7.63-6.95-7.63s-7.01,3.66-7.01,7.86Z"/>
      <path class="cls-1" d="M50.15,400.08v7.8h10.34v-7.8h2.54v18.77h-2.54v-8.82h-10.34v8.82h-2.54v-18.77h2.54Z"/>
      <path class="cls-1" d="M73.62,412.86l-2.17,5.99h-2.66l7.08-18.77h3.1l7.16,18.77h-2.75l-2.27-5.99h-7.48Zm6.93-1.95l-2.15-5.61c-.45-1.19-.74-2.17-1.04-3.14h-.06c-.29,.99-.58,1.98-.99,3.09l-2.14,5.66h6.37Z"/>
      <path class="cls-1" d="M100.99,400.34c1.71-.24,3.73-.42,5.92-.42,3.97,0,6.82,.94,8.67,2.67,1.75,1.61,2.7,3.69,2.7,6.42s-.93,5.21-2.85,7.09c-1.96,1.87-5.23,2.93-9.36,2.93-2.03,0-3.64-.07-5.08-.22v-18.48Zm2.54,16.55c.72,.11,1.81,.13,2.98,.13,6.14,.02,9.11-3.27,9.11-7.91,.04-4.33-2.82-7.2-8.63-7.2-1.56,0-2.69,.14-3.45,.29v14.68Z"/>
      <path class="cls-1" d="M135.05,410.09h-8.14v6.69h9.07v2.07h-11.6v-18.77h11.15v2.07h-8.61v5.87h8.14v2.07Z"/>
      <path class="cls-1" d="M146.98,418.85l-6.77-18.77h2.75l3.28,9.4c.93,2.67,1.67,4.82,2.24,6.94h.06c.61-2.09,1.46-4.36,2.43-6.87l3.63-9.46h2.7l-7.49,18.77h-2.83Z"/>
      <path class="cls-1" d="M172.72,410.09h-8.14v6.69h9.07v2.07h-11.6v-18.77h11.15v2.07h-8.61v5.87h8.14v2.07Z"/>
      <path class="cls-1" d="M179.79,400.08h2.54v16.65h8.94v2.12h-11.48v-18.77Z"/>
      <path class="cls-1" d="M213.59,409.26c0,6.25-4.43,9.93-9.8,9.93s-9.51-4.03-9.51-9.49c0-5.85,4.16-9.94,9.75-9.94s9.56,4.07,9.56,9.51Zm-16.64,.35c0,4.07,2.66,7.57,6.96,7.57s7-3.35,7-7.81c0-3.81-2.39-7.63-6.95-7.63s-7.01,3.66-7.01,7.86Z"/>
      <path class="cls-1" d="M219.69,400.3c1.27-.2,2.98-.38,5.18-.38,2.6,0,4.46,.6,5.63,1.62,1.06,.9,1.74,2.26,1.74,3.94s-.53,3.1-1.57,4.08c-1.38,1.36-3.57,2.04-6.17,2.04-.86,0-1.65-.04-2.3-.22v7.47h-2.52v-18.56Zm2.52,9.05c.64,.19,1.46,.26,2.4,.26,3.22,0,5.12-1.46,5.12-4,0-2.67-2.1-3.72-4.85-3.72-1.26,0-2.19,.11-2.66,.21v7.25Z"/>
      <path class="cls-1" d="M255.85,410.56c-.15-2.65-.34-5.96-.34-8.34h-.06c-.73,2.21-1.6,4.61-2.65,7.31l-3.65,9.21h-1.99l-3.35-9.1c-.99-2.74-1.77-5.18-2.35-7.42h-.06c-.09,2.38-.21,5.67-.41,8.54l-.55,8.1h-2.43l1.37-18.77h3.35l3.53,9.25c.82,2.24,1.5,4.38,2.02,6.28h.07c.53-1.82,1.27-3.98,2.19-6.28l3.75-9.25h3.33l1.19,18.77h-2.51l-.47-8.29Z"/>
      <path class="cls-1" d="M276.25,410.09h-8.14v6.69h9.07v2.07h-11.6v-18.77h11.15v2.07h-8.61v5.87h8.14v2.07Z"/>
      <path class="cls-1" d="M283.31,418.85v-18.77h2.88l6.87,9.71c1.57,2.26,2.7,4.07,3.66,5.97l.06-.04c-.24-2.36-.26-4.6-.26-7.4v-8.25h2.4v18.77h-2.61l-6.77-9.67c-1.47-2.17-2.88-4.32-3.91-6.26l-.09,.04c.14,2.33,.17,4.56,.17,7.36v8.53h-2.4Z"/>
      <path class="cls-1" d="M310.25,402.17h-6.48v-2.09h15.53v2.09h-6.51v16.68h-2.54v-16.68Z"/>
      <path class="cls-1" d="M348.11,418.16c-.97,.49-3.06,1.03-5.72,1.03-5.83,0-10.24-3.48-10.24-9.57,0-5.39,4.07-9.87,10.85-9.87,2.71,0,4.44,.58,5.16,.95l-.64,2.02c-1.06-.51-2.65-.9-4.4-.9-5.21,0-8.31,3.1-8.31,7.77,0,4.2,2.82,7.49,8.11,7.49,1.72,0,3.48-.34,4.65-.89l.54,1.97Z"/>
      <path class="cls-1" d="M371.74,409.26c0,6.25-4.43,9.93-9.8,9.93s-9.51-4.03-9.51-9.49c0-5.85,4.16-9.94,9.75-9.94s9.56,4.07,9.56,9.51Zm-16.64,.35c0,4.07,2.66,7.57,6.96,7.57s7-3.35,7-7.81c0-3.81-2.39-7.63-6.95-7.63s-7.01,3.66-7.01,7.86Z"/>
      <path class="cls-1" d="M375.82,417.39c0-1.05,.71-1.81,1.74-1.81s1.71,.76,1.72,1.81c0,.99-.69,1.79-1.74,1.79s-1.74-.81-1.72-1.79Z"/>
      <path class="cls-1" d="M396.32,418.85l-5.14-18.77h2.69l2.45,9.65c.58,2.34,1.16,4.74,1.52,6.39h.06c.33-1.69,.97-4,1.66-6.42l2.78-9.62h2.74l2.48,9.73c.56,2.26,1.09,4.49,1.39,6.25h.06c.4-1.84,.98-3.95,1.64-6.35l2.79-9.64h2.62l-5.88,18.77h-2.68l-2.55-9.98c-.67-2.56-1.07-4.29-1.34-6.13h-.06c-.33,1.8-.8,3.56-1.58,6.1l-2.92,10.01h-2.74Z"/>
      <path class="cls-1" d="M418.2,417.39c0-1.05,.71-1.81,1.74-1.81s1.71,.76,1.72,1.81c0,.99-.69,1.79-1.74,1.79s-1.74-.81-1.72-1.79Z"/>
      <path class="cls-1" d="M427.63,400.08h2.54v16.65h8.94v2.12h-11.48v-18.77Z"/>
      <path class="cls-1" d="M443.98,417.39c0-1.05,.71-1.81,1.74-1.81s1.71,.76,1.72,1.81c0,.99-.69,1.79-1.74,1.79s-1.74-.81-1.72-1.79Z"/>
      <path class="cls-1" d="M453.41,400.08h2.54v16.65h8.94v2.12h-11.48v-18.77Z"/>
    </g>
    <g>
      <path class="cls-2" d="M88.84,352.75h-10.81v-5.26h28.16v5.26h-10.92v28.42h-6.43v-28.42Z"/>
      <path class="cls-2" d="M130.01,371.4l-3.23,9.77h-6.76l11.91-33.68h8.37l12.27,33.68h-7.07l-3.47-9.77h-12.03Zm10.86-4.81l-3.07-8.49c-.73-2.05-1.32-4.07-1.88-5.89h-.1c-.53,1.84-1.05,3.88-1.71,5.85l-2.98,8.52h9.73Z"/>
      <path class="cls-2" d="M176.53,352.75h-10.81v-5.26h28.16v5.26h-10.92v28.42h-6.43v-28.42Z"/>
      <path class="cls-2" d="M219.33,381.17l-8.95-33.68h6.91l3.56,15.5c.91,4.13,1.84,8.56,2.45,11.63h.1c.57-3.29,1.55-7.44,2.6-11.72l3.92-15.41h7.18l3.57,15.85c.86,4.01,1.61,7.77,2.13,11.12h.1c.63-3.43,1.54-7.34,2.54-11.53l3.95-15.44h6.62l-10.03,33.68h-6.95l-3.8-16.67c-.93-3.96-1.55-6.99-2-10.52h-.1c-.57,3.49-1.25,6.57-2.35,10.5l-4.31,16.69h-7.15Z"/>
      <path class="cls-2" d="M295.82,366.36h-14.25v9.6h15.89v5.21h-22.32v-33.68h21.53v5.21h-15.1v8.46h14.25v5.21Z"/>
      <path class="cls-2" d="M338.84,366.36h-14.25v9.6h15.89v5.21h-22.32v-33.68h21.53v5.21h-15.1v8.46h14.25v5.21Z"/>
      <path class="cls-2" d="M361.18,347.94c2.5-.42,6.28-.75,10.3-.75,5.28,0,8.71,.89,11.07,2.8,1.85,1.46,3.02,3.83,3.02,6.75,0,4.48-3.3,7.41-6.41,8.37v.16c2.46,.95,3.95,3.3,4.84,6.33,1.19,4.24,2.15,8.2,2.86,9.56h-6.58c-.55-.98-1.38-3.58-2.45-7.87-1.07-4.39-2.79-5.82-6.56-5.92h-3.72v13.79h-6.37v-33.23Zm6.37,14.8h4.39c4.49,0,7.25-2.1,7.25-5.43,0-3.78-3-5.33-7.14-5.33-2.38,0-3.81,.19-4.5,.35v10.41Z"/>
    </g>
    <g>
      <path class="cls-2" d="M372.19,145.46l-22.38-23.29h-109.87c-10.57,0-19.14,8.57-19.14,19.14v157.01l11.65,12.13,11.65-12.13V149.43c0-2.19,1.78-3.97,3.97-3.97h124.13Z"/>
      <path class="cls-2" d="M115.09,122.17l-22.38,23.29h89.87c2.19,0,3.97,1.78,3.97,3.97v113.23l23.29,24.24V141.31c0-10.57-8.57-19.14-19.14-19.14H115.09Z"/>
      <path class="cls-1" d="M254.88,287.09l23.31-24.27v-100.21c0-3.52-2.85-6.37-6.37-6.37h-10.57c-3.52,0-6.37,2.85-6.37,6.37v124.47Z"/>
      <path class="cls-1" d="M152.46,227.19l23.29,24.24v-88.82c0-3.52-2.85-6.37-6.37-6.37h-10.56c-3.52,0-6.37,2.85-6.37,6.37v64.58Z"/>
      <path class="cls-1" d="M288.96,251.62l23.31-24.27v-64.74c0-3.52-2.85-6.37-6.37-6.37h-10.57c-3.52,0-6.37,2.85-6.37,6.37v89Z"/>
      <path class="cls-1" d="M175.76,59.01l-23.29,24.24v21.76c0,3.52,2.85,6.37,6.37,6.37h10.56c3.52,0,6.37-2.85,6.37-6.37V59.01Z"/>
      <path class="cls-1" d="M312.27,83.09l-23.31-24.27v46.19c0,3.52,2.85,6.37,6.37,6.37h10.57c3.52,0,6.37-2.85,6.37-6.37v-21.92Z"/>
      <path class="cls-1" d="M278.19,47.61l-23.31-24.25V105.02c0,3.52,2.85,6.37,6.37,6.37h10.57c3.52,0,6.37-2.85,6.37-6.37V47.61Z"/>
      <path class="cls-1" d="M244.09,12.13L232.44,0l-11.65,12.13V105.02c0,3.52,2.85,6.37,6.37,6.37h10.56c3.52,0,6.37-2.85,6.37-6.37V12.13Z"/>
      <path class="cls-1" d="M192.91,111.38h10.56c3.52,0,6.37-2.85,6.37-6.37V23.53l-23.29,24.25v57.23c0,3.52,2.85,6.37,6.37,6.37Z"/>
    </g>
    <polygon class="cls-1" points="209.84 334.17 209.84 333.97 209.64 334.17 209.84 334.17"/>
  </g>
</svg>