<?xml version="1.0" encoding="UTF-8"?>
<svg id="Layer_2" data-name="Layer 2" xmlns="http://www.w3.org/2000/svg" viewBox="0 0 568.51 174.88">
  <defs>
    <style>
      .cls-1 {
        fill: #000835;
      }

      .cls-2 {
        fill: #ff7f00;
      }
    </style>
  </defs>
  <g id="Logo">
    <g>
      <path class="cls-1" d="M175.69,115.14c1.45-.2,3.15-.35,5-.35,3.36,0,5.77,.79,7.33,2.26,1.48,1.36,2.28,3.12,2.28,5.42s-.79,4.41-2.41,5.99c-1.66,1.58-4.42,2.48-7.91,2.48-1.71,0-3.08-.06-4.29-.18v-15.62Zm2.14,13.99c.6,.1,1.53,.11,2.52,.11,5.19,.01,7.7-2.77,7.7-6.68,.03-3.66-2.38-6.08-7.29-6.08-1.32,0-2.27,.12-2.92,.25v12.41Z"/>
      <path class="cls-1" d="M210.76,122.69c0,5.28-3.74,8.39-8.28,8.39s-8.04-3.41-8.04-8.02c0-4.95,3.52-8.4,8.24-8.4s8.08,3.44,8.08,8.03Zm-14.06,.3c0,3.44,2.25,6.4,5.88,6.4s5.91-2.83,5.91-6.6c0-3.22-2.02-6.44-5.87-6.44s-5.92,3.09-5.92,6.64Z"/>
      <path class="cls-1" d="M218.07,114.93v6.59h8.74v-6.59h2.14v15.86h-2.14v-7.45h-8.74v7.45h-2.14v-15.86h2.14Z"/>
      <path class="cls-1" d="M237.9,125.73l-1.83,5.06h-2.25l5.98-15.86h2.62l6.05,15.86h-2.33l-1.92-5.06h-6.32Zm5.85-1.65l-1.82-4.74c-.38-1.01-.63-1.83-.88-2.65h-.05c-.24,.84-.49,1.68-.84,2.61l-1.81,4.78h5.38Z"/>
      <path class="cls-1" d="M261.02,115.14c1.45-.2,3.15-.35,5-.35,3.36,0,5.77,.79,7.33,2.26,1.48,1.36,2.28,3.12,2.28,5.42s-.79,4.41-2.41,5.99c-1.66,1.58-4.42,2.48-7.91,2.48-1.71,0-3.08-.06-4.29-.18v-15.62Zm2.14,13.99c.6,.1,1.53,.11,2.52,.11,5.19,.01,7.7-2.77,7.7-6.68,.03-3.66-2.38-6.08-7.29-6.08-1.32,0-2.27,.12-2.92,.25v12.41Z"/>
      <path class="cls-1" d="M289.8,123.39h-6.87v5.65h7.66v1.75h-9.8v-15.86h9.42v1.75h-7.27v4.96h6.87v1.75Z"/>
      <path class="cls-1" d="M299.88,130.79l-5.72-15.86h2.32l2.77,7.94c.79,2.26,1.41,4.07,1.89,5.86h.05c.51-1.76,1.23-3.69,2.06-5.81l3.07-8h2.28l-6.33,15.86h-2.39Z"/>
      <path class="cls-1" d="M321.64,123.39h-6.87v5.65h7.66v1.75h-9.8v-15.86h9.42v1.75h-7.27v4.96h6.87v1.75Z"/>
      <path class="cls-1" d="M327.61,114.93h2.14v14.07h7.55v1.79h-9.7v-15.86Z"/>
      <path class="cls-1" d="M356.16,122.69c0,5.28-3.74,8.39-8.28,8.39s-8.04-3.41-8.04-8.02c0-4.95,3.52-8.4,8.24-8.4s8.08,3.44,8.08,8.03Zm-14.06,.3c0,3.44,2.25,6.4,5.88,6.4s5.91-2.83,5.91-6.6c0-3.22-2.02-6.44-5.87-6.44s-5.92,3.09-5.92,6.64Z"/>
      <path class="cls-1" d="M361.32,115.11c1.08-.17,2.52-.32,4.38-.32,2.2,0,3.77,.5,4.76,1.37,.89,.76,1.47,1.91,1.47,3.33s-.45,2.62-1.32,3.45c-1.17,1.15-3.01,1.72-5.21,1.72-.72,0-1.39-.03-1.94-.19v6.31h-2.13v-15.68Zm2.13,7.65c.54,.16,1.23,.22,2.02,.22,2.72,0,4.32-1.24,4.32-3.38,0-2.26-1.78-3.14-4.1-3.14-1.07,0-1.85,.1-2.25,.18v6.12Z"/>
      <path class="cls-1" d="M391.88,123.78c-.13-2.24-.28-5.04-.28-7.05h-.05c-.61,1.86-1.35,3.9-2.24,6.18l-3.08,7.78h-1.68l-2.83-7.69c-.83-2.31-1.5-4.37-1.99-6.27h-.05c-.08,2.01-.18,4.79-.35,7.21l-.47,6.84h-2.05l1.16-15.86h2.83l2.98,7.82c.69,1.89,1.27,3.7,1.71,5.31h.06c.45-1.54,1.07-3.37,1.85-5.3l3.17-7.82h2.82l1.01,15.86h-2.12l-.39-7.01Z"/>
      <path class="cls-1" d="M409.11,123.39h-6.87v5.65h7.66v1.75h-9.8v-15.86h9.42v1.75h-7.27v4.96h6.87v1.75Z"/>
      <path class="cls-1" d="M415.08,130.79v-15.86h2.43l5.8,8.21c1.32,1.91,2.28,3.44,3.1,5.05l.05-.03c-.2-1.99-.22-3.89-.22-6.25v-6.97h2.03v15.86h-2.21l-5.72-8.18c-1.24-1.84-2.44-3.65-3.31-5.29l-.08,.03c.12,1.97,.14,3.85,.14,6.22v7.21h-2.03Z"/>
      <path class="cls-1" d="M437.84,116.7h-5.47v-1.76h13.12v1.76h-5.5v14.09h-2.14v-14.09Z"/>
      <path class="cls-1" d="M469.84,130.21c-.82,.41-2.58,.87-4.83,.87-4.93,0-8.65-2.94-8.65-8.08,0-4.55,3.44-8.34,9.17-8.34,2.29,0,3.75,.49,4.36,.8l-.54,1.71c-.9-.43-2.24-.76-3.72-.76-4.4,0-7.02,2.62-7.02,6.56,0,3.55,2.39,6.33,6.86,6.33,1.45,0,2.94-.28,3.93-.76l.45,1.67Z"/>
      <path class="cls-1" d="M489.8,122.69c0,5.28-3.74,8.39-8.28,8.39s-8.04-3.41-8.04-8.02c0-4.95,3.52-8.4,8.24-8.4s8.08,3.44,8.08,8.03Zm-14.06,.3c0,3.44,2.25,6.4,5.88,6.4s5.91-2.83,5.91-6.6c0-3.22-2.02-6.44-5.87-6.44s-5.92,3.09-5.92,6.64Z"/>
      <path class="cls-1" d="M493.25,129.56c0-.89,.6-1.53,1.47-1.53s1.45,.64,1.46,1.53c0,.83-.58,1.51-1.47,1.51s-1.47-.68-1.46-1.51Z"/>
      <path class="cls-1" d="M510.57,130.79l-4.35-15.86h2.27l2.07,8.15c.49,1.98,.98,4,1.29,5.4h.05c.28-1.43,.82-3.38,1.4-5.42l2.35-8.13h2.32l2.1,8.23c.47,1.91,.92,3.8,1.17,5.28h.05c.33-1.55,.83-3.33,1.39-5.36l2.36-8.15h2.21l-4.97,15.86h-2.26l-2.15-8.43c-.56-2.16-.91-3.62-1.13-5.18h-.05c-.28,1.52-.68,3.01-1.34,5.15l-2.47,8.46h-2.31Z"/>
      <path class="cls-1" d="M529.06,129.56c0-.89,.6-1.53,1.47-1.53s1.45,.64,1.46,1.53c0,.83-.58,1.51-1.47,1.51s-1.47-.68-1.46-1.51Z"/>
      <path class="cls-1" d="M537.02,114.93h2.14v14.07h7.55v1.79h-9.7v-15.86Z"/>
      <path class="cls-1" d="M550.84,129.56c0-.89,.6-1.53,1.47-1.53s1.45,.64,1.46,1.53c0,.83-.58,1.51-1.47,1.51s-1.47-.68-1.46-1.51Z"/>
      <path class="cls-1" d="M558.81,114.93h2.14v14.07h7.55v1.79h-9.7v-15.86Z"/>
    </g>
    <g>
      <path class="cls-2" d="M189.44,64.25h-13.75v-6.69h35.82v6.69h-13.89v36.15h-8.18v-36.15Z"/>
      <path class="cls-2" d="M241.81,87.97l-4.1,12.42h-8.6l15.15-42.84h10.65l15.61,42.84h-8.99l-4.41-12.42h-15.31Zm13.82-6.11l-3.9-10.8c-.93-2.61-1.68-5.17-2.39-7.49h-.13c-.67,2.34-1.33,4.94-2.17,7.44l-3.79,10.84h12.38Z"/>
      <path class="cls-2" d="M300.98,64.25h-13.75v-6.69h35.82v6.69h-13.89v36.15h-8.18v-36.15Z"/>
      <path class="cls-2" d="M355.42,100.39l-11.38-42.84h8.78l4.52,19.71c1.16,5.25,2.34,10.89,3.12,14.8h.13c.73-4.18,1.97-9.46,3.31-14.91l4.99-19.61h9.13l4.54,20.16c1.1,5.1,2.05,9.88,2.71,14.14h.13c.8-4.37,1.96-9.33,3.24-14.66l5.02-19.63h8.41l-12.76,42.84h-8.84l-4.83-21.21c-1.18-5.04-1.97-8.89-2.54-13.38h-.13c-.73,4.44-1.59,8.35-2.98,13.36l-5.48,21.22h-9.09Z"/>
      <path class="cls-2" d="M452.71,81.56h-18.13v12.21h20.22v6.62h-28.39V57.56h27.39v6.62h-19.21v10.76h18.13v6.62Z"/>
      <path class="cls-2" d="M507.43,81.56h-18.13v12.21h20.22v6.62h-28.39V57.56h27.39v6.62h-19.21v10.76h18.13v6.62Z"/>
      <path class="cls-2" d="M535.84,58.13c3.18-.54,7.99-.95,13.1-.95,6.72,0,11.07,1.13,14.08,3.56,2.35,1.86,3.85,4.87,3.85,8.59,0,5.69-4.2,9.43-8.15,10.65v.2c3.13,1.21,5.02,4.2,6.15,8.06,1.52,5.4,2.73,10.43,3.64,12.17h-8.37c-.7-1.24-1.76-4.56-3.11-10.01-1.36-5.59-3.54-7.4-8.34-7.53h-4.74v17.54h-8.11V58.13Zm8.11,18.82h5.59c5.72,0,9.23-2.67,9.23-6.9,0-4.8-3.81-6.78-9.08-6.78-3.03,0-4.84,.24-5.73,.45v13.24Z"/>
    </g>
    <path class="cls-2" d="M157.44,81.94l-12.61-13.12h-61.89c-5.95,0-10.78,4.83-10.78,10.78v88.45l6.56,6.83,6.56-6.83V84.18c0-1.24,1-2.24,2.24-2.24h69.92Z"/>
    <path class="cls-2" d="M12.61,68.82L0,81.94H50.63c1.24,0,2.24,1,2.24,2.24v63.78l13.12,13.66V79.6c0-5.95-4.83-10.78-10.78-10.78H12.61Z"/>
    <path class="cls-1" d="M91.36,161.73l13.13-13.67v-56.45c0-1.98-1.61-3.59-3.59-3.59h-5.96c-1.98,0-3.59,1.61-3.59,3.59v70.12Z"/>
    <path class="cls-1" d="M33.67,127.98l13.12,13.66v-50.03c0-1.98-1.61-3.59-3.59-3.59h-5.95c-1.98,0-3.59,1.61-3.59,3.59v36.38Z"/>
    <path class="cls-1" d="M110.56,141.74l13.13-13.67v-36.47c0-1.98-1.61-3.59-3.59-3.59h-5.96c-1.98,0-3.59,1.61-3.59,3.59v50.14Z"/>
    <path class="cls-1" d="M46.79,33.24l-13.12,13.66v12.26c0,1.98,1.61,3.59,3.59,3.59h5.95c1.98,0,3.59-1.61,3.59-3.59v-25.92Z"/>
    <path class="cls-1" d="M123.69,46.81l-13.13-13.67v26.02c0,1.98,1.61,3.59,3.59,3.59h5.96c1.98,0,3.59-1.61,3.59-3.59v-12.35Z"/>
    <path class="cls-1" d="M104.49,26.82l-13.13-13.66V59.16c0,1.98,1.61,3.59,3.59,3.59h5.96c1.98,0,3.59-1.61,3.59-3.59V26.82Z"/>
    <path class="cls-1" d="M85.28,6.83l-6.56-6.83-6.56,6.83V59.16c0,1.98,1.61,3.59,3.59,3.59h5.95c1.98,0,3.59-1.61,3.59-3.59V6.83Z"/>
    <path class="cls-1" d="M56.45,62.74h5.95c1.98,0,3.59-1.61,3.59-3.59V13.25l-13.12,13.66V59.16c0,1.98,1.61,3.59,3.59,3.59Z"/>
  </g>
</svg>